PathFileType	4	(X/Y/Z)	./resultDataOpenSim/trcMotMarkerGrf/sub10/qtm-04-01.trc
DataRate	CameraRate	NumFrames	NumMarkers	Units	OrigDataRate	OrigDataStartFrame	OrigNumFrames
250.000000	250.000000	6	24	m	250.000000	1	493
Frame#	Time	L.Toe.Tip			R.Toe.Tip			L.Ankle.Lat			R.Ankle.Lat			L.Ankle.Med			R.Ankle.Med			L.Heel			R.Heel			L.Knee.Lat			R.Knee.Lat			L.Knee.Med			R.Knee.Med			L.Thigh.Upper			R.Thigh.Upper			L.ASIS			R.ASIS			V.Sacral			L.Acromium			R.Acromium			C7			L.Elbow			R.Elbow			L.Wrist.Lat			R.Wrist.Lat
		X1	Y1	Z1	X2	Y2	Z2	X3	Y3	Z3	X4	Y4	Z4	X5	Y5	Z5	X6	Y6	Z6	X7	Y7	Z7	X8	Y8	Z8	X9	Y9	Z9	X10	Y10	Z10	X11	Y11	Z11	X12	Y12	Z12	X13	Y13	Z13	X14	Y14	Z14	X15	Y15	Z15	X16	Y16	Z16	X17	Y17	Z17	X18	Y18	Z18	X19	Y19	Z19	X20	Y20	Z20	X21	Y21	Z21	X22	Y22	Z22	X23	Y23	Z23	X24	Y24	Z24

1	0	-1.5166434	0.038389436	-0.13047182	-1.1364658	0.0657716	0.049813503	-1.6501326	0.064245598	-0.16017356	-1.2754918	0.092096091	0.054100761	-1.6392837	0.089371456	-0.078363018	-1.2369377	0.11530282	-0.021328397	NaN	NaN	NaN	-1.3135471	0.067217672	-0.0080179531	-1.5267259	0.43336805	-0.19453045	-1.2068117	0.48019048	0.088791212	-1.5301618	0.41401013	-0.074563847	-1.1703772	0.49210837	-0.034450944	-1.4115019	0.809611	-0.2532598	-1.3897276	0.84675964	0.12830858	-1.3362741	0.91396037	-0.19395467	-1.3177007	0.93096614	0.049785473	-1.5220329	0.95167717	-0.059377461	-1.3465071	1.4026559	-0.21734293	-1.3842982	1.3982885	0.10071229	-1.4413976	1.4316059	-0.071587729	-1.4384804	1.0610886	-0.2816642	-1.5457356	1.0869375	0.1418258	-1.2222955	0.93162388	-0.27206531	-1.471631	0.87173778	0.22621556
2	0.004	-1.5167084	0.038354166	-0.13046925	-1.1183866	0.066394866	0.050967695	-1.6498863	0.064285424	-0.16010195	-1.2581077	0.089053318	0.05531342	-1.638871	0.089636532	-0.078246059	-1.2204416	0.11333362	-0.020106592	NaN	NaN	NaN	-1.2954735	0.063128195	-0.006791866	-1.5254067	0.43313846	-0.1943902	-1.2000214	0.47970699	0.089368837	-1.5305942	0.41330771	-0.073723187	-1.1643139	0.49157117	-0.033953605	-1.4076848	0.8085731	-0.25304834	-1.3840463	0.84587923	0.12868971	-1.3322359	0.9129133	-0.19372801	-1.3127868	0.93001505	0.049943391	-1.5175323	0.95020845	-0.058545588	-1.3415014	1.4014143	-0.21725321	-1.3799227	1.3970042	0.10087103	-1.4365725	1.430431	-0.071535889	-1.432458	1.0594763	-0.28295207	-1.5421592	1.0867313	0.14166342	-1.2148891	0.93175586	-0.27086106	-1.4689913	0.87116476	0.22721947
3	0.008	-1.5167614	0.038322748	-0.13047301	-1.1003196	0.067124685	0.052087387	-1.6500911	0.064280458	-0.15984892	-1.2406419	0.08618091	0.056613968	-1.6384598	0.089906091	-0.078123589	-1.2038655	0.11149452	-0.018870055	NaN	NaN	NaN	-1.2774289	0.059207898	-0.0055217724	-1.524001	0.4328761	-0.1942275	-1.1933962	0.4790945	0.089919431	-1.5302377	0.41268275	-0.073080123	-1.158332	0.49093464	-0.033451428	-1.4038632	0.80756414	-0.25288035	-1.3783404	0.8449505	0.12908617	-1.3280646	0.91188324	-0.19343105	-1.3078546	0.92905259	0.050098845	-1.5130314	0.94869541	-0.057734895	-1.336471	1.4001585	-0.21713437	-1.3753965	1.3956959	0.1010127	-1.4317368	1.4292028	-0.071475957	-1.4264122	1.0578413	-0.28417879	-1.5386704	1.0862144	0.14152478	-1.2075045	0.93189421	-0.2696798	-1.4663606	0.8705527	0.22819699
4	0.012	-1.5167549	0.038307819	-0.1305139	-1.0822704	0.068020929	0.053149532	-1.650528	0.064314651	-0.15950011	-1.2230483	0.08357412	0.058023	-1.6380502	0.09018321	-0.07799194	-1.1871617	0.10986671	-0.017605921	NaN	NaN	NaN	-1.2594163	0.055552776	-0.0041469521	-1.5224502	0.43257593	-0.19404549	-1.1869521	0.4783107	0.090449025	-1.528957	0.41216564	-0.072655605	-1.1524581	0.49014237	-0.032944623	-1.4000322	0.80659596	-0.25276325	-1.3726053	0.84396171	0.12949241	-1.3237468	0.91087148	-0.19305797	-1.3028837	0.92806076	0.050260974	-1.5085277	0.94710862	-0.056949933	-1.3313917	1.39887	-0.21698561	-1.3707083	1.3943401	0.10112716	-1.4268668	1.4279065	-0.071375812	-1.4202447	1.0561599	-0.28505998	-1.5352299	1.0854421	0.14142843	-1.2001208	0.93202556	-0.26851459	-1.4637823	0.86987276	0.22913114
5	0.016	-1.5166036	0.038331339	-0.13064803	-1.0643233	0.069074796	0.054145243	-1.6507849	0.064477883	-0.15921747	-1.205408	0.081238131	0.059512412	-1.6376428	0.090468494	-0.077849976	-1.170416	0.10846089	-0.016305805	NaN	NaN	NaN	-1.2414731	0.052192115	-0.002647144	-1.5207328	0.43225741	-0.19386072	-1.1806416	0.47736737	0.090977088	-1.5270265	0.41174042	-0.072374732	-1.1466865	0.48918915	-0.032440754	-1.3962026	0.80566761	-0.252681	-1.3668898	0.84291925	0.12989681	-1.3194105	0.90984728	-0.19267126	-1.2978533	0.92702805	0.050441267	-1.5040245	0.94544956	-0.056175942	-1.3262614	1.3975342	-0.21683267	-1.3659428	1.3929279	0.10121159	-1.4219587	1.4265617	-0.071228911	-1.4139056	1.0544296	-0.28543246	-1.5317971	1.0846795	0.14140881	-1.1926993	0.93212551	-0.26733284	-1.4613075	0.86912636	0.2300235
6	0.02	-1.5162578	0.038399199	-0.13091411	-1.0465941	0.070235873	0.055079702	-1.6507505	0.064779836	-0.1590482	-1.1878574	0.07914006	0.061041243	-1.6372375	0.090761533	-0.077697761	-1.1537937	0.10724184	-0.014965644	NaN	NaN	NaN	-1.223648	0.049121655	-0.0010476693	-1.5188387	0.43193706	-0.1936853	-1.1743999	0.47627858	0.091528921	-1.5246644	0.41136116	-0.072191389	-1.1409974	0.4880897	-0.031945441	-1.3923898	0.8047752	-0.25262201	-1.3612032	0.84182055	0.13030641	-1.315212	0.90875916	-0.19234601	-1.2927481	0.92595285	0.050643393	-1.4995136	0.94374367	-0.055389808	-1.3210892	1.3961452	-0.21669808	-1.3611523	1.3914705	0.10128145	-1.4170255	1.4251884	-0.071064049	-1.4074226	1.052676	-0.2854033	-1.5284242	1.0840946	0.14150534	-1.185204	0.93218869	-0.26609877	-1.4590215	0.86834395	0.23088682
